<svg xmlns="http://www.w3.org/2000/svg" version="1.1" xmlns:xlink="http://www.w3.org/1999/xlink" xmlns:svgjs="http://svgjs.dev/svgjs" width="1000" height="1000" viewBox="0 0 1000 1000"><rect width="1000" height="1000" fill="#ffffff"></rect><g transform="matrix(0.7,0,0,0.7,149.57575838072484,452.15229212308896)"><svg viewBox="0 0 396 54" data-background-color="#ffffff" preserveAspectRatio="xMidYMid meet" height="136" width="1000" xmlns="http://www.w3.org/2000/svg" xmlns:xlink="http://www.w3.org/1999/xlink"><g id="tight-bounds" transform="matrix(1,0,0,1,0.24000045538150516,0.1405065688360594)"><svg viewBox="0 0 395.52 53.71898686232786" height="53.71898686232786" width="395.52"><g><svg viewBox="0 0 425.420510309706 57.780033384637726" height="53.71898686232786" width="395.52"><g transform="matrix(1,0,0,1,29.90051030970603,7.985518362131554)"><svg viewBox="0 0 395.52 41.80899666037462" height="41.80899666037462" width="395.52"><g id="textblocktransform"><svg viewBox="0 0 395.52 41.80899666037462" height="41.80899666037462" width="395.52" id="textblock"><g><svg viewBox="0 0 395.52 41.80899666037462" height="41.80899666037462" width="395.52"><g transform="matrix(1,0,0,1,0,0)"><svg width="395.52" viewBox="1.5 -35.70000076293945 345.57000732421875 36.400001525878906" height="41.80899666037462" data-palette-color="#0080ff"><g class="undefined-text-0" data-fill-palette-color="primary" id="text-0"><path d="M17.5 0.7Q12.65 0.7 9.05-1.53 5.45-3.75 3.48-7.88 1.5-12 1.5-17.5L1.5-17.5Q1.5-22.95 3.53-27.08 5.55-31.2 9.15-33.45 12.75-35.7 17.3-35.7L17.3-35.7Q21.3-35.7 24.9-34.2L24.9-34.2 24.4-29.95Q21.2-31.55 18.2-31.55L18.2-31.55Q14.5-31.55 11.88-29.7 9.25-27.85 7.9-24.65 6.55-21.45 6.55-17.5L6.55-17.5Q6.55-13.55 7.9-10.35 9.25-7.15 11.88-5.3 14.5-3.45 18.25-3.45L18.25-3.45Q21.5-3.45 24.4-4.95L24.4-4.95 24.9-0.7Q21.7 0.7 17.5 0.7L17.5 0.7ZM42.55 0.7Q38.25 0.7 34.87-1.55 31.5-3.8 29.6-7.93 27.7-12.05 27.7-17.5L27.7-17.5Q27.7-22.95 29.6-27.08 31.5-31.2 34.87-33.45 38.25-35.7 42.55-35.7L42.55-35.7Q46.85-35.7 50.2-33.45 53.55-31.2 55.45-27.08 57.35-22.95 57.35-17.5L57.35-17.5Q57.35-12.05 55.45-7.93 53.55-3.8 50.2-1.55 46.85 0.7 42.55 0.7L42.55 0.7ZM42.55-3.85Q47.35-3.85 49.92-7.68 52.5-11.5 52.5-17.5L52.5-17.5Q52.5-23.5 49.92-27.33 47.35-31.15 42.55-31.15L42.55-31.15Q37.75-31.15 35.15-27.33 32.55-23.5 32.55-17.5L32.55-17.5Q32.55-11.5 35.15-7.68 37.75-3.85 42.55-3.85L42.55-3.85ZM62.49 0L62.49-35 71.5-35Q77-35 80.07-32.27 83.14-29.55 83.14-24.3L83.14-24.3Q83.14-21.3 81.72-18.88 80.3-16.45 77.75-15.05L77.75-15.05 84.75 0 79.34 0 73.09-13.7Q72.3-13.6 71.44-13.6L71.44-13.6 67.05-13.6 67.05 0 62.49 0ZM67.05-17.8L71.09-17.8Q74.89-17.8 76.64-19.45 78.39-21.1 78.39-24.3L78.39-24.3Q78.39-27.55 76.64-29.2 74.89-30.85 71.09-30.85L71.09-30.85 67.05-30.85 67.05-17.8ZM89.19 0L89.19-35 94.34-35 108.19-9.4 108.19-35 112.74-35 112.74 0 108.49 0 93.74-27.05 93.74 0 89.19 0ZM119.34 0L119.34-35 138.04-35 138.04-30.85 123.89-30.85 123.89-20.4 135.09-20.4 135.09-16.2 123.89-16.2 123.89-4.15 138.44-4.15 138.44 0 119.34 0ZM143.19 0L143.19-35 147.74-35 147.74-4.15 161.09-4.15 161.09 0 143.19 0ZM165.09 0L165.09-35 169.69-35 169.69 0 165.09 0ZM195.13 0L192.33-9.5 181.48-9.5 178.68 0 173.78 0 184.53-35 189.23-35 199.98 0 195.13 0ZM182.73-13.75L191.08-13.75 186.88-27.95 182.73-13.75ZM203.68 0L203.68-35 222.13-35 222.13-30.85 208.23-30.85 208.23-20.45 218.98-20.45 218.98-16.25 208.23-16.25 208.23 0 203.68 0ZM239.23 0.7Q234.93 0.7 231.55-1.55 228.18-3.8 226.28-7.93 224.38-12.05 224.38-17.5L224.38-17.5Q224.38-22.95 226.28-27.08 228.18-31.2 231.55-33.45 234.93-35.7 239.23-35.7L239.23-35.7Q243.53-35.7 246.88-33.45 250.23-31.2 252.13-27.08 254.03-22.95 254.03-17.5L254.03-17.5Q254.03-12.05 252.13-7.93 250.23-3.8 246.88-1.55 243.53 0.7 239.23 0.7L239.23 0.7ZM239.23-3.85Q244.03-3.85 246.6-7.68 249.18-11.5 249.18-17.5L249.18-17.5Q249.18-23.5 246.6-27.33 244.03-31.15 239.23-31.15L239.23-31.15Q234.43-31.15 231.83-27.33 229.23-23.5 229.23-17.5L229.23-17.5Q229.23-11.5 231.83-7.68 234.43-3.85 239.23-3.85L239.23-3.85ZM259.18 0L259.18-35 268.18-35Q273.68-35 276.75-32.27 279.83-29.55 279.83-24.3L279.83-24.3Q279.83-21.3 278.4-18.88 276.98-16.45 274.43-15.05L274.43-15.05 281.43 0 276.03 0 269.78-13.7Q268.98-13.6 268.13-13.6L268.13-13.6 263.73-13.6 263.73 0 259.18 0ZM263.73-17.8L267.78-17.8Q271.58-17.8 273.33-19.45 275.08-21.1 275.08-24.3L275.08-24.3Q275.08-27.55 273.33-29.2 271.58-30.85 267.78-30.85L267.78-30.85 263.73-30.85 263.73-17.8ZM297.97 0.7Q291.62 0.7 288.57-3.1 285.52-6.9 285.52-13.85L285.52-13.85 285.52-35 290.07-35 290.07-15.15Q290.07-11.5 290.65-9 291.22-6.5 292.97-4.98 294.72-3.45 297.97-3.45L297.97-3.45Q301.27-3.45 303.02-4.98 304.77-6.5 305.35-9 305.92-11.5 305.92-15.15L305.92-15.15 305.92-35 310.47-35 310.47-13.85Q310.47-6.85 307.42-3.08 304.37 0.7 297.97 0.7L297.97 0.7ZM347.07 0L342.17 0 339.87-25.3 331.42-7.25 322.97-25.3 320.62 0 315.77 0 319.57-35 323.42-35 331.42-16.95 339.42-35 343.27-35 347.07 0Z" fill="#0080ff" data-fill-palette-color="primary"></path></g></svg></g></svg></g></svg></g></svg></g><g><svg viewBox="0 0 20.03040961411143 57.780033384637726" height="57.780033384637726" width="20.03040961411143"><g><svg xmlns="http://www.w3.org/2000/svg" xmlns:xlink="http://www.w3.org/1999/xlink" version="1.1" x="0" y="0" viewBox="34.400001525878906 5 31.199996948242188 90" enable-background="new 0 0 100 100" xml:space="preserve" height="57.780033384637726" width="20.03040961411143" class="icon-icon-0" data-fill-palette-color="accent" id="icon-0"><g fill="#0080ff" data-fill-palette-color="accent"><g fill="#0080ff" data-fill-palette-color="accent"><polygon points="34.4,39.7 44.7,86.9 50.5,95 54.1,42.5   " fill="#0080ff" data-fill-palette-color="accent"></polygon></g><g fill="#0080ff" data-fill-palette-color="accent"><polygon points="45,31.4 35.1,38.8 53.4,41.4   " fill="#0080ff" data-fill-palette-color="accent"></polygon></g><g fill="#0080ff" data-fill-palette-color="accent"><polygon points="63.3,26.6 51.5,5 45.8,30.1   " fill="#0080ff" data-fill-palette-color="accent"></polygon></g><g fill="#0080ff" data-fill-palette-color="accent"><polygon points="65.6,40.5 63.8,28.4 55.6,41.5   " fill="#0080ff" data-fill-palette-color="accent"></polygon></g><g fill="#0080ff" data-fill-palette-color="accent"><polygon points="49.9,7.7 35.1,37.5 44.7,30.4   " fill="#0080ff" data-fill-palette-color="accent"></polygon></g><g fill="#0080ff" data-fill-palette-color="accent"><polygon points="51.8,91.4 65.5,41.6 55.1,42.6   " fill="#0080ff" data-fill-palette-color="accent"></polygon></g><g fill="#0080ff" data-fill-palette-color="accent"><polygon points="54.6,41.2 63,27.7 46.1,31.1   " fill="#0080ff" data-fill-palette-color="accent"></polygon></g></g></svg></g></svg></g></svg></g><defs></defs></svg><rect width="395.52" height="53.71898686232786" fill="none" stroke="none" visibility="hidden"></rect></g></svg></g></svg>